<?xml version="1.0" standalone="no"?>
<!DOCTYPE svg PUBLIC "-//W3C//DTD SVG 20010904//EN"
 "http://www.w3.org/TR/2001/REC-SVG-20010904/DTD/svg10.dtd">
<svg version="1.0" xmlns="http://www.w3.org/2000/svg"
 width="1024.000000pt" height="1024.000000pt" viewBox="0 0 1024.000000 1024.000000"
 preserveAspectRatio="xMidYMid meet">

<g transform="translate(0.000000,1024.000000) scale(0.100000,-0.100000)"
fill="#000000" stroke="none">
<path d="M2515 9559 c-274 -14 -540 -64 -725 -134 -648 -247 -1035 -772 -1147
-1555 -17 -117 -18 -282 -18 -2715 0 -2404 1 -2600 17 -2723 67 -505 232 -878
519 -1173 290 -297 668 -480 1137 -549 263 -38 510 -42 3007 -37 2555 4 2477
2 2736 52 538 102 954 364 1230 774 168 249 271 540 326 917 16 110 17 317 21
2644 3 2630 3 2686 -39 2930 -133 784 -620 1324 -1352 1500 -155 37 -307 58
-522 70 -203 12 -4966 11 -5190 -1z m4027 -1050 c472 -94 851 -427 1003 -882
45 -134 65 -263 65 -418 0 -197 -37 -366 -120 -545 -37 -80 -138 -242 -166
-265 -8 -6 -14 -17 -14 -23 0 -6 63 -74 139 -150 120 -120 142 -138 163 -133
63 16 79 2 492 -412 410 -414 435 -444 436 -522 0 -79 -82 -187 -175 -230 -48
-22 -125 -24 -164 -5 -37 20 -818 811 -838 849 -10 20 -14 46 -10 73 l4 42
-136 136 -137 137 -70 -47 c-371 -249 -843 -292 -1250 -113 -149 65 -265 147
-398 281 -117 117 -120 119 -160 116 -34 -2 -43 -8 -54 -31 -20 -42 -9 -68 65
-147 38 -40 82 -94 99 -119 38 -57 53 -65 179 -94 55 -13 167 -45 248 -71 84
-26 220 -59 318 -76 165 -29 213 -45 269 -90 47 -37 123 -43 535 -38 l390 5
97 -91 c54 -50 98 -94 98 -97 0 -3 -6 -6 -12 -6 -337 -5 -1021 -27 -1071 -34
-97 -14 -164 -52 -296 -172 l-43 -39 -332 5 c-182 3 -355 10 -385 16 -65 12
-98 40 -112 95 -30 122 -113 383 -142 454 -44 103 -116 212 -171 257 -76 62
-184 100 -317 111 -146 13 -242 -41 -312 -173 -44 -85 -68 -171 -98 -348 l-22
-137 -86 6 c-236 18 -1545 147 -1610 159 -8 1 -29 54 -53 136 -44 153 -91 250
-156 322 -64 71 -109 92 -202 92 -100 0 -147 -24 -197 -98 -49 -75 -78 -180
-104 -389 l-23 -176 -22 21 c-12 11 -35 48 -50 82 -29 61 -29 64 -29 252 l1
190 36 105 c34 100 36 113 41 275 7 208 9 215 53 215 22 0 34 -5 34 -14 0 -12
-36 -157 -56 -225 -12 -41 12 -16 50 52 19 35 47 98 61 140 28 85 26 101 -20
131 -25 17 -25 17 -7 34 30 27 149 165 290 337 72 88 146 178 165 200 l34 39
-23 19 c-28 22 -33 80 -9 114 38 54 522 114 1235 153 182 11 1471 31 1479 24
2 -1 -7 -45 -19 -96 l-23 -93 -400 3 c-306 3 -401 2 -407 -8 -15 -24 14 -89
168 -389 104 -202 166 -311 184 -324 34 -26 137 -36 375 -36 l181 -1 -14 48
c-25 79 -44 231 -44 342 0 611 440 1159 1033 1286 174 37 363 38 539 3z m1158
-1953 c130 -45 205 -87 225 -127 9 -16 20 -66 25 -111 7 -56 18 -98 38 -137
32 -61 52 -156 52 -242 l0 -54 -67 67 -68 68 4 113 c3 114 -8 186 -32 205 -7
6 -96 16 -198 23 -101 6 -196 14 -210 18 l-27 6 66 108 c36 59 70 106 76 103
6 -2 58 -21 116 -40z m-5597 -560 c135 -56 229 -331 214 -626 -11 -221 -79
-390 -177 -440 -46 -23 -119 -26 -158 -6 -74 39 -145 153 -184 294 -30 108
-32 392 -4 497 62 234 175 338 309 281z m2750 -144 c161 -79 270 -273 296
-527 23 -225 -42 -420 -185 -554 -93 -87 -138 -106 -259 -106 -93 0 -105 2
-165 32 -121 60 -226 192 -277 348 -34 105 -42 284 -19 395 19 91 90 237 146
303 124 142 308 185 463 109z m2896 -632 c35 -33 62 -62 60 -64 -4 -3 -614
-26 -1259 -46 -162 -5 -349 -12 -415 -15 l-120 -6 30 31 c16 17 50 44 75 60
l46 30 375 15 c452 18 1016 45 1044 49 80 13 98 7 164 -54z m-3468 -993 c268
-70 467 -224 581 -452 27 -53 71 -186 82 -246 l7 -37 -148 -6 c-82 -3 -187 -8
-234 -11 l-87 -6 -6 46 c-4 24 -23 76 -42 113 -144 289 -563 339 -801 96 -107
-109 -169 -266 -194 -491 -38 -348 66 -675 256 -812 86 -61 153 -83 270 -89
232 -11 409 89 495 281 l35 77 228 0 229 0 -7 -32 c-15 -70 -68 -198 -112
-273 -62 -106 -193 -238 -297 -298 -176 -103 -347 -142 -576 -134 -175 6 -293
34 -436 101 -336 159 -518 453 -555 894 -23 281 22 565 121 763 128 259 327
430 585 504 133 37 194 44 360 40 119 -3 170 -9 246 -28z m2219 -27 c308 -32
504 -185 577 -451 14 -49 18 -101 17 -224 0 -146 -2 -167 -27 -241 -59 -177
-174 -294 -375 -380 -2 -1 105 -202 238 -448 132 -245 240 -448 240 -451 0 -3
-116 -5 -258 -5 l-257 0 -208 415 -207 415 -215 0 -215 0 0 -415 0 -415 -235
0 -235 0 0 1105 0 1105 529 0 c297 0 574 -5 631 -10z"/>
<path d="M6135 8219 c-317 -46 -624 -277 -760 -573 -62 -133 -86 -236 -92
-386 -10 -264 63 -489 225 -691 208 -260 546 -402 875 -368 116 12 244 47 346
95 285 134 491 402 557 725 25 124 15 342 -20 464 -147 496 -625 807 -1131
734z m-300 -728 c146 -104 486 -387 640 -532 57 -53 64 -57 125 -64 96 -10
394 -75 468 -100 38 -13 -176 -244 -301 -326 -341 -222 -804 -166 -1098 132
-59 60 -149 180 -164 221 -6 14 40 16 424 19 388 4 432 6 447 21 16 16 -2 36
-299 338 -280 284 -349 359 -304 334 6 -4 35 -23 62 -43z"/>
<path d="M3486 7558 c-110 -4 -202 -11 -205 -13 -5 -6 -80 -610 -81 -652 0
-20 -5 -23 -44 -23 -25 0 -47 4 -50 9 -3 4 13 151 35 326 22 176 38 324 37
330 -5 16 -389 -10 -428 -30 -37 -19 -88 -83 -195 -245 -158 -238 -183 -309
-124 -352 21 -16 59 -22 190 -34 90 -8 252 -23 359 -34 583 -59 1241 -109
1274 -97 25 10 18 68 -18 162 -45 114 -283 587 -316 628 l-31 37 -102 -2 c-56
0 -192 -5 -301 -10z m499 -497 c75 -35 117 -99 131 -199 l7 -52 -119 6 c-406
20 -404 20 -404 73 0 46 60 130 113 158 69 35 210 43 272 14z"/>
<path d="M2254 6665 c-3 -7 -4 -24 -2 -37 2 -19 11 -24 48 -30 87 -13 167 -9
174 8 13 35 -11 52 -81 58 -38 4 -83 8 -101 11 -22 3 -35 -1 -38 -10z"/>
<path d="M3099 6569 c-8 -15 -8 -28 -1 -44 8 -18 21 -23 73 -28 34 -4 83 -7
108 -7 40 0 48 4 59 27 18 39 -1 53 -84 63 -113 15 -142 13 -155 -11z"/>
<path d="M5507 5654 c-26 -8 -49 -61 -54 -129 -10 -121 28 -150 187 -143 113
5 152 21 219 89 50 51 96 131 88 153 -3 8 -30 16 -69 20 -95 9 -351 16 -371
10z"/>
<path d="M2000 5802 c-71 -35 -114 -163 -114 -342 0 -185 46 -314 127 -353 36
-18 38 -18 74 0 99 48 153 321 103 519 -23 89 -56 146 -103 174 -39 24 -43 24
-87 2z"/>
<path d="M4595 5672 c-213 -103 -272 -490 -107 -707 26 -35 57 -60 102 -83 59
-31 71 -34 127 -29 172 13 287 180 287 417 0 114 -25 199 -85 289 -57 85 -119
123 -212 128 -56 3 -81 0 -112 -15z"/>
<path d="M5810 3521 l0 -311 263 0 c296 0 369 10 447 60 61 39 95 89 116 169
40 158 -20 296 -156 360 -55 26 -56 26 -362 29 l-308 3 0 -310z"/>
</g>
</svg>
