<?xml version="1.0" standalone="no"?>
<!DOCTYPE svg PUBLIC "-//W3C//DTD SVG 20010904//EN"
 "http://www.w3.org/TR/2001/REC-SVG-20010904/DTD/svg10.dtd">
<svg version="1.0" xmlns="http://www.w3.org/2000/svg"
 width="906.000000pt" height="894.000000pt" viewBox="0 0 906.000000 894.000000"
 preserveAspectRatio="xMidYMid meet">

<g transform="translate(0.000000,894.000000) scale(0.100000,-0.100000)"
fill="#000000" stroke="none">
<path d="M0 4470 l0 -4470 4530 0 4530 0 0 4470 0 4470 -4530 0 -4530 0 0
-4470z m7155 4439 c379 -24 612 -81 880 -214 187 -93 309 -180 445 -315 227
-227 382 -508 470 -853 80 -317 75 -98 75 -3032 0 -2881 4 -2681 -61 -2975
-104 -467 -343 -845 -697 -1107 -270 -199 -596 -317 -1017 -370 -137 -17 -294
-18 -2710 -18 -2818 0 -2676 -3 -2984 60 -506 102 -923 374 -1187 773 -193
293 -297 628 -329 1062 -8 112 -10 852 -8 2685 l3 2530 23 138 c99 604 353
1032 781 1319 283 189 614 290 1043 317 195 13 5085 13 5273 0z"/>
<path d="M5456 7864 c-544 -98 -978 -551 -1060 -1106 -26 -175 -15 -383 29
-530 l15 -50 -248 4 c-270 5 -299 10 -341 64 -38 49 -321 621 -323 656 l-3 33
404 2 405 1 22 84 c13 45 23 88 24 93 0 11 -1060 3 -1335 -9 -625 -29 -1228
-90 -1346 -137 -51 -20 -66 -104 -25 -136 l24 -19 -121 -144 c-66 -80 -178
-214 -249 -299 l-130 -153 32 -27 c31 -26 32 -26 19 -76 -20 -84 -111 -267
-125 -252 -2 2 10 56 26 121 17 65 30 122 30 127 0 5 -14 9 -30 9 -44 0 -51
-28 -57 -225 -5 -154 -8 -177 -34 -246 -38 -104 -52 -212 -47 -371 4 -144 17
-191 75 -267 l27 -35 18 145 c40 323 88 449 193 503 54 28 173 28 230 1 98
-48 188 -196 250 -408 18 -66 35 -120 37 -121 8 -6 1190 -123 1628 -161 l76
-7 23 144 c46 286 114 427 236 491 90 46 275 29 412 -38 141 -70 229 -212 328
-529 30 -99 55 -187 55 -195 0 -9 9 -35 20 -59 14 -31 29 -47 55 -57 47 -20
271 -35 535 -35 243 0 219 -7 336 93 80 68 144 103 211 117 27 5 269 14 538
21 270 6 506 14 526 18 l36 6 -95 90 -95 90 -401 -3 c-247 -2 -421 1 -453 7
-32 6 -69 23 -96 44 -51 39 -77 47 -277 81 -81 14 -207 45 -285 70 -78 25
-190 57 -250 71 -126 30 -145 40 -181 96 -14 23 -59 77 -100 121 -79 84 -89
112 -58 156 11 16 25 22 55 22 37 0 46 -7 156 -118 263 -265 555 -387 918
-386 174 1 275 17 427 70 124 43 190 76 296 147 l82 55 135 -140 136 -140 -6
-42 c-3 -23 0 -52 8 -68 16 -35 801 -834 838 -854 101 -52 277 44 324 176 20
56 19 86 -5 135 -12 25 -165 188 -422 448 l-403 407 -55 0 -55 0 -141 141
-141 141 54 72 c82 107 177 307 215 451 29 113 31 131 32 305 1 200 -10 277
-62 435 -148 449 -558 798 -1031 879 -117 20 -355 20 -465 0z m479 -313 c309
-79 552 -280 686 -565 122 -262 124 -583 5 -842 -69 -147 -165 -277 -269 -362
-409 -332 -973 -315 -1352 39 -89 83 -156 178 -215 301 -80 168 -94 231 -94
443 -1 211 12 273 94 440 150 309 430 514 775 569 72 11 291 -2 370 -23z
m-2621 -647 c27 -27 94 -149 199 -362 128 -259 169 -362 165 -410 l-3 -37 -80
-3 c-88 -3 -398 21 -960 74 -203 19 -444 41 -535 49 -226 20 -249 24 -271 46
-25 25 -25 79 2 132 63 123 241 387 296 440 21 19 46 30 89 37 67 11 367 30
373 24 3 -3 -14 -152 -36 -332 -23 -180 -40 -328 -39 -329 1 -2 23 -6 47 -9
l44 -6 40 341 40 341 35 1 c19 1 103 5 185 9 289 13 392 12 409 -6z m-1475
-893 c38 -7 57 -30 48 -55 -5 -12 -20 -16 -70 -16 -35 0 -85 3 -110 6 -39 6
-46 10 -50 33 -9 43 8 52 82 45 36 -3 81 -9 100 -13z m834 -80 c72 -9 93 -27
76 -64 -12 -26 -16 -27 -83 -26 -141 1 -182 20 -158 73 10 23 17 26 59 25 27
0 74 -4 106 -8z m2660 -937 c39 -8 35 -39 -14 -113 -77 -115 -150 -154 -293
-152 -134 1 -166 24 -166 122 0 68 15 118 44 143 19 17 35 18 211 12 104 -4
202 -9 218 -12z"/>
<path d="M5200 6851 c19 -24 162 -174 317 -331 156 -158 283 -292 283 -298 0
-5 -8 -14 -17 -18 -10 -5 -210 -10 -445 -12 -236 -2 -428 -6 -428 -9 0 -3 25
-43 55 -88 69 -104 208 -237 306 -292 298 -168 673 -152 942 41 103 73 282
276 261 295 -20 19 -341 90 -473 106 -51 6 -60 11 -150 93 -206 188 -477 411
-619 510 l-67 47 35 -44z"/>
<path d="M3201 6420 c-24 -5 -60 -18 -80 -28 -73 -38 -134 -154 -99 -189 16
-15 151 -27 398 -35 l105 -3 -2 38 c-6 93 -48 169 -115 203 -36 19 -148 26
-207 14z"/>
<path d="M6918 5840 c-37 -61 -66 -110 -65 -110 1 0 95 -7 209 -15 115 -7 213
-17 219 -21 29 -18 40 -77 38 -201 l-2 -125 66 -66 67 -67 0 50 c-1 84 -26
200 -54 248 -19 33 -29 69 -37 132 -15 139 -37 161 -226 230 -65 24 -125 46
-133 49 -11 4 -33 -24 -82 -104z"/>
<path d="M1375 5345 c-69 -35 -129 -132 -167 -273 -31 -113 -31 -382 1 -497
69 -254 195 -363 339 -294 217 105 243 773 39 1005 -63 72 -143 94 -212 59z
m148 -213 c70 -66 101 -184 94 -352 -7 -172 -53 -296 -121 -328 -88 -43 -174
74 -199 271 -24 186 34 403 117 437 32 14 77 3 109 -28z"/>
<path d="M4017 5230 c-158 -40 -282 -180 -349 -390 -19 -64 -23 -95 -22 -210
0 -153 14 -221 71 -339 45 -94 152 -205 238 -247 53 -26 70 -29 155 -29 88 0
101 3 162 33 124 61 235 214 274 377 24 105 15 301 -20 420 -72 241 -215 381
-399 390 -40 3 -89 0 -110 -5z m202 -216 c137 -69 223 -283 193 -481 -23 -147
-103 -269 -204 -313 -100 -43 -220 -13 -297 75 -175 200 -135 596 73 715 70
41 158 42 235 4z"/>
<path d="M6735 4610 c-176 -10 -506 -26 -734 -35 -364 -14 -418 -18 -450 -35
-40 -20 -119 -86 -111 -92 3 -3 232 3 510 13 278 9 677 23 888 30 l383 13 -63
63 c-39 39 -70 63 -83 62 -11 -1 -164 -10 -340 -19z"/>
<path d="M3253 3600 c-443 -63 -735 -343 -845 -810 -29 -124 -37 -466 -14
-611 58 -365 234 -624 521 -764 175 -86 351 -121 554 -112 264 12 477 100 641
266 78 78 117 134 170 239 29 58 80 204 80 229 0 2 -103 3 -229 3 l-229 0 -16
-46 c-22 -65 -68 -134 -125 -187 -91 -85 -208 -127 -358 -127 -251 0 -425 142
-513 418 -83 258 -61 611 52 835 49 99 146 200 228 240 301 145 637 6 714
-295 l13 -51 79 1 c43 1 148 5 231 8 l153 7 -6 26 c-49 225 -119 357 -258 488
-119 114 -270 191 -450 229 -85 18 -307 26 -393 14z"/>
<path d="M4750 2455 l0 -1105 235 0 235 0 0 415 0 415 218 0 217 0 208 -415
207 -415 255 0 c140 0 255 2 255 4 0 2 -108 204 -241 450 -132 246 -239 448
-237 450 1 1 39 19 83 41 58 28 97 57 150 109 114 115 162 234 172 431 18 360
-147 611 -453 689 -109 28 -282 36 -796 36 l-508 0 0 -1105z m1111 705 c82
-25 130 -66 166 -138 24 -50 28 -69 28 -147 0 -78 -4 -97 -28 -147 -33 -67
-81 -110 -157 -140 -51 -21 -74 -23 -352 -26 l-298 -4 0 311 0 311 289 0 c259
0 295 -2 352 -20z"/>
</g>
</svg>
